<svg width="128" height="132" viewBox="0 0 128 132" fill="none" xmlns="http://www.w3.org/2000/svg">
  <g clip-path="url(#clip0_47_338)">
    <path fill-rule="evenodd" clip-rule="evenodd" d="M12.3065 66.9134C17.6377 71.1031 21.4228 67.1891 17.3178 62.5583L16.8913 62.1173C16.0167 61.2502 15.0908 60.4401 14.1191 59.6917C13.1062 58.9199 12.04 58.2584 10.9737 57.5968C8.39463 56.0972 5.68076 54.8602 2.87034 53.9033C2.39668 53.662 1.84974 53.6252 1.34985 53.801C0.849954 53.9767 0.438052 54.3506 0.204757 54.8404C-0.0285393 55.3302 -0.0641188 55.8958 0.105845 56.4127C0.275809 56.9296 0.637394 57.3556 1.11106 57.5968C3.40346 59.1955 5.32268 61.2353 7.50846 63.1096C8.90994 64.398 10.3878 65.5948 11.9333 66.6929L12.3065 66.9134Z" fill="#FDBE1C" />
    <path fill-rule="evenodd" clip-rule="evenodd" d="M63.9655 96.9579C63.7888 96.4462 63.4227 96.028 62.9478 95.7954C62.4729 95.5628 61.9281 95.5348 61.4332 95.7176C60.9383 95.9003 60.534 96.2789 60.309 96.77C60.0841 97.261 60.057 97.8244 60.2337 98.3361C60.5304 99.9444 60.1973 101.609 59.3075 102.963C58.4177 104.317 57.0442 105.251 55.489 105.558C54.5488 105.584 53.6162 105.376 52.7701 104.951C51.8588 104.591 51.0254 104.047 50.3177 103.353C49.8454 102.846 49.4004 102.312 48.9849 101.754C48.7414 101.364 48.5613 100.936 48.4518 100.486C48.2354 99.4373 48.3865 98.3431 48.8783 97.399C49.2515 97.0131 49.5181 96.6272 49.8379 96.2413C50.28 95.5996 50.842 95.056 51.4906 94.6426C52.6629 93.8481 54.034 93.4249 55.4357 93.4249C56.8373 93.4249 58.2084 93.8481 59.3807 94.6426C59.7207 94.9329 60.1537 95.0805 60.594 95.0564C61.0343 95.0322 61.4497 94.838 61.7581 94.5122C62.0665 94.1864 62.2454 93.7527 62.2592 93.297C62.2731 92.8413 62.121 92.3968 61.8331 92.0516C60.5229 90.6633 58.8816 89.657 57.0751 89.1343C55.2685 88.6116 53.3606 88.591 51.5439 89.0747C51.5325 88.2157 51.4069 87.3624 51.1707 86.5388C50.9897 86.023 50.6203 85.6013 50.1418 85.3642C49.6633 85.1271 49.1139 85.0936 48.6118 85.2709C48.3605 85.3573 48.1287 85.4952 47.93 85.6763C47.7314 85.8573 47.5701 86.0779 47.4556 86.3249C47.3412 86.5718 47.276 86.84 47.264 87.1136C47.252 87.3871 47.2933 87.6603 47.3856 87.917C47.6788 88.8485 47.6788 89.8521 47.3856 90.7836C45.7437 91.7573 44.3821 93.1653 43.4405 94.8631C43.2279 94.8868 43.0134 94.8868 42.8008 94.8631C41.8764 94.9036 40.9578 94.6946 40.1352 94.2567C39.1094 94.0101 38.1461 93.5403 37.3097 92.8785C36.8291 92.3944 36.4002 91.8585 36.0302 91.2798C35.7505 90.9046 35.5507 90.4725 35.4438 90.0119C35.2718 88.8498 35.4636 87.6613 35.9911 86.62C36.5186 85.5786 37.3542 84.7389 38.3759 84.2234C39.5431 83.4152 40.9162 82.9837 42.321 82.9837C43.7257 82.9837 45.0988 83.4152 46.266 84.2234C46.6054 84.5597 47.06 84.7428 47.5299 84.7325C47.9998 84.7221 48.4465 84.5192 48.7717 84.1683C49.0969 83.8174 49.274 83.3473 49.264 82.8614C49.254 82.3755 49.0577 81.9136 48.7184 81.5773C47.6374 80.3918 46.3026 79.4849 44.8212 78.9296C43.3398 78.3743 41.7531 78.186 40.1885 78.3799C40.3787 76.8409 40.1575 75.2775 39.5488 73.8594C39.372 73.3477 39.0059 72.9295 38.531 72.6969C38.0561 72.4643 37.5113 72.4363 37.0165 72.619C36.5216 72.8018 36.1172 73.1804 35.8923 73.6714C35.6673 74.1625 35.6402 74.7259 35.8169 75.2376C36.0008 76.0471 36.0052 76.8891 35.8298 77.7006C35.6543 78.512 35.3037 79.272 34.804 79.9235C33.7662 80.4944 32.8144 81.2187 31.9785 82.0735C31.6714 82.2338 31.3501 82.363 31.0189 82.4593C30.0983 82.4596 29.1888 82.2527 28.3533 81.8529C27.4421 81.4922 26.6087 80.9489 25.901 80.2542C25.4138 79.7613 24.9679 79.2265 24.5682 78.6555C24.2926 78.2639 24.1099 77.8106 24.0351 77.3325C23.8141 76.153 23.9964 74.9307 24.5507 73.8748C25.1051 72.8189 25.9969 71.995 27.0738 71.5441C28.2461 70.7496 29.6173 70.3264 31.0189 70.3264C32.4205 70.3264 33.7917 70.7496 34.964 71.5441C35.3084 71.753 35.7113 71.8345 36.1065 71.7753C36.5016 71.7161 36.8656 71.5196 37.1385 71.2182C37.4114 70.9168 37.577 70.5283 37.6081 70.1167C37.6392 69.705 37.534 69.2947 37.3097 68.953C35.6258 67.4007 33.5635 66.3542 31.3459 65.9266C29.1283 65.4991 26.8398 65.7068 24.7281 66.5274C22.5038 67.2717 20.612 68.8172 19.3969 70.8825C17.862 73.1031 17.1782 75.8334 17.4777 78.5453C17.6656 79.7058 18.0443 80.8245 18.5973 81.8529C19.3534 83.0794 20.2483 84.2083 21.2629 85.2157C22.8146 86.596 24.6594 87.5782 26.6473 88.0824C27.4607 88.3405 28.3029 88.4888 29.153 88.5234C29.0459 89.4204 29.0459 90.3276 29.153 91.2247C29.3505 92.3732 29.7479 93.4753 30.3258 94.4772C31.0474 95.7456 31.9455 96.8972 32.9914 97.8951C34.5374 99.253 36.3597 100.233 38.3226 100.762C39.5893 101.12 40.9027 101.268 42.2144 101.203C42.2404 101.349 42.2404 101.498 42.2144 101.644C42.397 102.814 42.7952 103.937 43.3872 104.951C44.1098 106.203 45.0082 107.336 46.0528 108.314C47.5774 109.705 49.4076 110.689 51.384 111.181C53.3357 111.754 55.4032 111.754 57.3549 111.181C58.7831 110.725 60.1085 109.978 61.2531 108.984C62.3976 107.99 63.338 106.768 64.0188 105.392C64.6061 104.068 64.9056 102.626 64.8964 101.169C64.8872 99.7119 64.5695 98.2745 63.9655 96.9579Z" fill="#020202" />
    <path fill-rule="evenodd" clip-rule="evenodd" d="M57.5681 34.8837C58.2933 35.0273 59.0064 35.23 59.7006 35.4901C63.3791 37.0337 65.405 33.0094 62.7394 31.2453C61.4123 30.4247 59.9751 29.8116 58.4744 29.4261C55.145 28.6843 51.7132 28.5722 48.3452 29.0953C45.371 29.3033 42.3835 29.1553 39.4422 28.6543L28.5133 24.4095C25.9887 23.3111 23.363 22.48 20.6764 21.9287C20.4488 21.9483 20.2275 22.0166 20.0266 22.1291C19.8257 22.2417 19.6495 22.3961 19.5093 22.5826C19.369 22.7691 19.2676 22.9836 19.2116 23.2127C19.1556 23.4417 19.1461 23.6803 19.1837 23.9133C19.2196 24.3248 19.394 24.7103 19.6765 25.0024C19.959 25.2946 20.3318 25.4749 20.7298 25.512C20.7298 25.512 21.3695 25.8428 21.9559 26.1735C25.2612 27.9376 32.2451 32.4581 36.9898 34.9389C38.9389 36.0897 41.1005 36.8035 43.3339 37.0337L49.3581 35.7658C52.0384 35.0586 54.8045 34.7614 57.5681 34.8837Z" fill="#FDBE1C" />
    <path fill-rule="evenodd" clip-rule="evenodd" d="M127.513 21.2121C127.236 20.7381 126.789 20.3966 126.27 20.2623C125.751 20.128 125.201 20.2118 124.741 20.4955L115.251 26.0082C113.551 27.0163 111.767 27.865 109.92 28.5441C108.836 28.9046 107.7 29.0724 106.562 29.0403C104.777 29.0122 102.996 28.8648 101.23 28.5992C99.6614 28.3195 98.112 27.9328 96.5923 27.4415C94.3532 26.6698 92.2207 25.6775 89.9817 25.0159C88.254 24.4748 86.4555 24.2144 84.6505 24.2441C83.2112 24.3135 81.7908 24.611 80.4389 25.1262C78.5525 25.7748 76.7593 26.6834 75.1077 27.8274C73.7749 28.6544 61.5132 40.3966 60.3404 41.6645C58.2865 43.6762 56.4944 45.9556 55.0092 48.4452C53.9845 50.3185 53.4001 52.4146 53.3032 54.5644C53.1836 55.8216 53.3422 57.0904 53.7671 58.2747C54.192 59.4591 54.872 60.5279 55.7555 61.4002C57.0094 62.4255 58.4702 63.146 60.0297 63.5086C61.5892 63.8712 63.2076 63.8666 64.7652 63.4951C67.5176 62.9258 70.0963 61.6776 72.2822 59.8567C74.4602 58.0651 76.4928 56.0923 78.3597 53.958C81.0748 55.1377 83.954 55.8635 86.8896 56.108C88.2711 56.2729 89.6664 56.2729 91.0479 56.108C92.4177 55.9029 93.7596 55.5329 95.0463 55.0054C97.9878 53.7264 100.652 51.852 102.883 49.4927C103.078 49.3603 103.245 49.1879 103.373 48.9862C103.501 48.7846 103.588 48.5579 103.628 48.3202C103.668 48.0826 103.66 47.8389 103.605 47.6044C103.551 47.3699 103.45 47.1495 103.31 46.9568C103.177 46.7612 103.008 46.5947 102.812 46.4667C102.617 46.3387 102.4 46.2517 102.172 46.2107C101.944 46.1698 101.711 46.1756 101.485 46.228C101.26 46.2803 101.046 46.3781 100.857 46.5158C98.405 47.5909 95.8221 48.3143 93.1804 48.6657L88.5422 49.4927C87.476 49.4927 86.5164 49.8785 85.4502 49.9337C83.7824 50.0717 82.1066 50.0717 80.4389 49.9337C80.491 49.7351 80.491 49.5258 80.4389 49.3273C80.2798 49.1572 80.0893 49.022 79.8786 48.9296C79.668 48.8373 79.4415 48.7897 79.2127 48.7897C78.9839 48.7897 78.7574 48.8373 78.5468 48.9296C78.3361 49.022 78.1456 49.1572 77.9865 49.3273C75.4689 51.9127 72.7595 54.2904 69.8831 56.4388C68.1639 57.6626 66.1926 58.4553 64.1255 58.7541C62.6948 58.9957 61.2273 58.7233 59.9672 57.9823C59.4659 57.6992 59.0658 57.2572 58.8259 56.7212C58.5859 56.1853 58.5188 55.5838 58.6344 55.0054C58.858 53.7437 59.3298 52.5428 60.0205 51.4772C61.3481 49.5543 62.8866 47.7969 64.6053 46.2401C67.2176 43.5389 69.9365 40.7273 72.7087 38.0261C74.4535 36.3655 76.3255 34.8537 78.3064 33.5056C79.3367 32.7861 80.4247 32.159 81.5584 31.6313C83.6584 30.6782 86.012 30.503 88.2224 31.1351C90.4081 31.6313 92.4873 32.4582 94.6731 33.1197C96.5835 33.6116 98.5254 33.9616 100.484 34.1671C102.402 34.2768 104.324 34.2768 106.242 34.1671C107.953 34.1158 109.645 33.7808 111.253 33.1748C113.369 32.2586 115.402 31.1518 117.331 29.8672L126.553 23.8582C127.013 23.6307 127.369 23.2281 127.548 22.7349C127.727 22.2416 127.715 21.696 127.513 21.2121Z" fill="#020202" />
    <path fill-rule="evenodd" clip-rule="evenodd" d="M98.9914 77.0562C98.6652 76.0915 98.2733 75.152 97.8185 74.2447C96.3107 71.5693 94.5229 69.0735 92.4873 66.8024L86.783 60.0768C86.4936 59.7299 86.0883 59.5086 85.648 59.4573C85.2078 59.4059 84.765 59.5282 84.4081 59.7998C84.0512 60.0713 83.8066 60.4721 83.7231 60.922C83.6395 61.3719 83.7232 61.8379 83.9575 62.2268L88.1691 70.0549C89.5551 72.3432 90.7671 74.7392 91.7943 77.2216C92.4435 78.6124 92.8754 80.101 93.0738 81.6318C93.2434 82.5958 93.2123 83.5862 92.9825 84.5368C92.7526 85.4875 92.3294 86.3765 91.741 87.1446C90.9935 88.0245 90.0385 88.6892 88.9688 89.074C88.8901 88.8673 88.8011 88.6649 88.7022 88.4676C87.5777 86.7387 86.3303 85.0987 84.9704 83.5612L77.2935 74.5754C77.1465 74.351 76.9582 74.1587 76.7393 74.0096C76.5204 73.8604 76.2752 73.7573 76.0178 73.7061C75.4979 73.6027 74.9596 73.7171 74.5213 74.0241C74.083 74.3312 73.7806 74.8057 73.6806 75.3433C73.5806 75.8809 73.6913 76.4375 73.9882 76.8908L79.9591 87.4202C80.9745 88.8955 81.9175 90.4226 82.7846 91.9958C83.2457 92.8088 83.604 93.6796 83.8508 94.5868C84.1471 95.2177 84.2345 95.9319 84.0997 96.6192C83.9648 97.3066 83.6151 97.929 83.1045 98.3906C82.342 99.0429 81.4191 99.4628 80.4389 99.6034C80.4389 99.6034 80.4389 99.2727 80.4389 99.1073C79.8729 97.856 79.1757 96.6728 78.3597 95.5791C77.0803 93.9804 75.8541 92.4368 74.468 90.9484C73.0819 89.4599 71.8024 88.0266 70.363 86.6484C70.0708 86.2791 69.6501 86.0432 69.1914 85.9917C68.7326 85.9401 68.2727 86.077 67.9106 86.3728C67.5499 86.6846 67.3205 87.1291 67.2708 87.6125C67.221 88.096 67.3549 88.5805 67.6441 88.9638C68.4971 90.2868 69.2434 91.5548 69.9898 92.933C70.7362 94.3112 72.069 96.9573 73.0286 99.0521L74.5213 102.801L73.7749 104.124C73.4151 104.72 72.9408 105.232 72.3814 105.631C71.822 106.029 71.1894 106.304 70.5229 106.439C69.2351 106.793 67.8657 106.636 66.6845 105.998C66.464 105.857 66.2188 105.762 65.9627 105.718C65.7067 105.675 65.4449 105.684 65.1923 105.746C64.9397 105.807 64.7014 105.919 64.4909 106.076C64.2804 106.233 64.1019 106.431 63.9656 106.66C63.6865 107.129 63.5972 107.692 63.7169 108.229C63.8366 108.765 64.1558 109.231 64.6053 109.526C66.3189 111.062 68.5221 111.887 70.7895 111.842C72.2666 111.881 73.7355 111.602 75.1029 111.023C76.4703 110.445 77.7065 109.578 78.7329 108.479C79.511 107.651 80.1587 106.703 80.6521 105.667C80.8149 105.129 80.9221 104.575 80.972 104.014C82.8067 104.146 84.6432 103.785 86.3032 102.966C87.8722 102.058 89.1301 100.669 89.9035 98.9904C90.6769 97.3119 90.9277 95.4266 90.6214 93.5945C92.5925 93.2123 94.4313 92.2996 95.9526 90.9484C97.1673 89.804 98.1473 88.4189 98.8341 86.8753C99.521 85.3316 99.9008 83.661 99.951 81.9625C99.8288 80.2923 99.5064 78.6442 98.9914 77.0562Z" fill="#FDBE1C" />
    <path fill-rule="evenodd" clip-rule="evenodd" d="M127.94 70.2754C127.877 70.0144 127.766 69.7687 127.611 69.5524C127.457 69.3362 127.262 69.1536 127.039 69.0153C126.816 68.877 126.569 68.7856 126.312 68.7464C126.055 68.7072 125.793 68.721 125.541 68.787C122.289 69.1729 119.143 69.2831 115.998 69.8344C113.857 70.19 111.752 70.7435 109.707 71.4882C107.356 72.4051 105.119 73.6079 103.043 75.0715C98.6715 76.9459 101.284 80.5843 105.389 79.3715L110.347 78.3241L114.079 77.3869L117.757 76.1741C120.689 75.1267 123.568 73.969 126.5 72.7562C126.753 72.6917 126.99 72.5763 127.199 72.4166C127.408 72.2568 127.585 72.0559 127.719 71.8253C127.853 71.5948 127.941 71.3392 127.979 71.0732C128.017 70.8072 128.003 70.5361 127.94 70.2754Z" fill="#020202" />
  </g>
  <defs>
    <clipPath id="clip0_47_338">
      <rect width="128" height="130.341" fill="white" transform="translate(-0.00012207 0.852051)" />
    </clipPath>
  </defs>
</svg>