<svg width="128" height="128" viewBox="0 0 128 128" fill="none" xmlns="http://www.w3.org/2000/svg">
  <path fill-rule="evenodd" clip-rule="evenodd" d="M123.039 35.2C123.184 30.9237 122.229 26.6819 120.266 22.88C118.301 20.1708 115.514 18.1691 112.319 17.1733C110.302 16.828 108.23 16.993 106.292 17.6533C104.03 18.4375 101.6 18.6032 99.2524 18.1333C99.0383 18.0786 98.8152 18.0688 98.5972 18.1046C98.3791 18.1403 98.1708 18.2209 97.9854 18.3411C97.8 18.4614 97.6415 18.6188 97.52 18.8033C97.3984 18.9878 97.3164 19.1955 97.2791 19.4133C97.1833 19.8516 97.2638 20.3099 97.5034 20.6892C97.7429 21.0685 98.1222 21.3382 98.5591 21.44C101.384 22.1322 104.339 22.0955 107.146 21.3333C108.545 20.8259 110.049 20.6791 111.519 20.9067C113.844 21.7633 115.865 23.2841 117.332 25.28C118.931 29.7162 119.497 34.4589 118.986 39.1467C118.986 47.04 118.399 56.16 117.812 61.9733C117.066 68.96 116.746 77.6533 115.519 85.8667C115.146 88.3733 114.666 90.7733 114.079 93.12C111.95 93.1198 109.825 92.9234 107.732 92.5333C101.812 91.36 96.3191 89.0133 90.0791 87.7867C87.5388 87.3256 84.9254 87.4718 82.4524 88.2133C81.3854 88.5172 80.3956 89.0455 79.5494 89.763C78.7032 90.4804 78.02 91.3704 77.5457 92.3733C76.8095 94.0596 76.3935 95.8682 76.3191 97.7067C75.9457 101.44 76.3191 105.76 76.3191 108.693C76.3191 111.627 76.3191 114.507 75.8391 117.387C75.8391 118.72 75.4657 120.053 75.3057 121.387C58.3679 122.96 41.2927 122.134 24.5857 118.933C21.1818 118.424 17.8627 117.455 14.7191 116.053C13.0614 115.323 11.5311 114.333 10.1857 113.12C10.7191 109.6 13.4391 101.493 13.7057 100.427C15.1457 93.2267 16.2657 85.8667 17.0124 78.4533C17.7826 71.0653 18.1565 63.6414 18.1324 56.2133C18.1324 51.7333 16.2657 41.3333 16.3191 33.1733C16.0215 30.2906 16.6173 27.3861 18.0257 24.8533C19.4374 23.2698 21.1498 21.9828 23.0634 21.0672C24.9771 20.1516 27.0536 19.6256 29.1724 19.52C36.1765 19.3012 43.1867 19.658 50.1324 20.5867C50.5198 20.6015 50.8977 20.4651 51.1863 20.2063C51.475 19.9476 51.6517 19.5867 51.6791 19.2C51.6939 18.7985 51.5518 18.407 51.2831 18.1084C51.0143 17.8098 50.6399 17.6274 50.2391 17.6C43.1758 16.57 36.0434 16.0885 28.9057 16.16C23.7071 16.4214 18.8208 18.7209 15.3057 22.56C13.3475 25.7613 12.3996 29.4785 12.5857 33.2267C12.5857 41.3333 13.9724 51.84 13.9191 56.32C13.8 63.5784 13.2836 70.8248 12.3724 78.0267C11.4657 85.2267 10.2391 92.4267 8.6924 99.36C8.6924 100.427 5.43907 108.907 4.90574 112.48C4.76007 113.111 4.75134 113.766 4.88014 114.401C5.00894 115.036 5.27227 115.636 5.6524 116.16C7.59359 118.217 9.91094 119.882 12.4791 121.067C16.0819 122.707 19.8826 123.872 23.7857 124.533C39.1457 127.147 63.2524 129.867 83.3591 125.76C97.8657 122.613 110.026 115.68 116.159 102.72C118.329 97.6182 119.748 92.2289 120.372 86.72C121.492 78.4 121.652 69.6 122.292 62.56C123.08 53.4627 123.329 44.3268 123.039 35.2ZM82.1857 120.533C81.0657 120.8 79.8924 120.907 78.7724 121.12C79.0924 119.627 79.5191 118.187 79.7324 116.693C80.1946 114.276 80.6213 111.822 81.0124 109.333C81.3857 106.507 81.4391 102.24 81.9191 98.6667C82.0733 97.4199 82.3963 96.1998 82.8791 95.04C83.2524 94.1867 84.2124 93.92 85.1191 93.7067C86.5495 93.4718 88.0087 93.4718 89.4391 93.7067C95.6791 94.4 101.279 96.32 107.306 96.96C109.276 97.1213 111.256 97.1213 113.226 96.96C112.728 98.3467 112.195 99.68 111.626 100.96C106.239 112 95.0391 117.653 82.1857 120.32V120.533Z" fill="#020202" />
  <path fill-rule="evenodd" clip-rule="evenodd" d="M63.4124 23.7333C64.4574 24.4068 65.5647 24.9783 66.7191 25.44C65.6904 26.4617 64.7284 27.5483 63.8391 28.6933C63.334 29.431 62.8711 30.1967 62.4524 30.9866C62.0206 31.7691 61.6635 32.5905 61.3857 33.44C60.6391 35.4666 60.1057 37.44 59.5191 39.4666C59.376 39.67 59.2792 39.9022 59.2352 40.1469C59.1913 40.3917 59.2014 40.643 59.2648 40.8835C59.3282 41.1239 59.4433 41.3476 59.6022 41.5388C59.761 41.7301 59.9598 41.8844 60.1845 41.9908C60.4092 42.0972 60.6544 42.1533 60.9031 42.1551C61.1517 42.1568 61.3977 42.1042 61.6239 42.0009C61.8501 41.8977 62.051 41.7462 62.2125 41.5572C62.374 41.3682 62.4923 41.1461 62.5591 40.9066C63.7324 39.2 64.9591 37.6 66.1324 35.8933C66.6159 35.1706 67.061 34.4229 67.4657 33.6533C67.8922 32.9159 68.2664 32.1496 68.5857 31.36C69.2257 29.76 69.7057 28.2133 70.2391 26.6666C70.5111 26.6939 70.7848 26.6368 71.0233 26.5033C71.2618 26.3697 71.4535 26.1661 71.5724 25.92C71.6619 25.7459 71.715 25.5554 71.7284 25.3601C71.7418 25.1648 71.7153 24.9688 71.6504 24.7841C71.5855 24.5994 71.4836 24.4299 71.351 24.2859C71.2184 24.1419 71.0578 24.0265 70.8791 23.9466L70.2924 23.6266H70.0257C68.4775 22.9383 67.0107 22.0796 65.6524 21.0666C64.8009 20.358 64.2175 19.3793 63.9991 18.2933C63.3793 16.4416 63.4176 14.4327 64.1075 12.6059C64.7974 10.7791 66.0966 9.24642 67.7857 8.26664C69.3225 7.0566 71.1264 6.23162 73.0469 5.86051C74.9674 5.4894 76.9488 5.58294 78.8257 6.1333C80.7562 6.85148 82.5574 7.87816 84.1591 9.1733C85.6099 10.2545 86.6153 11.8289 86.9857 13.6C87.0836 15.0849 86.8078 16.5707 86.1836 17.9216C85.5594 19.2725 84.6067 20.4454 83.4124 21.3333C82.346 22.4888 81.0035 23.3544 79.5108 23.8488C78.0182 24.3433 76.4244 24.4503 74.8791 24.16C74.4616 24.0321 74.0109 24.069 73.6199 24.2633C73.2288 24.4575 72.9271 24.7943 72.7768 25.2042C72.6265 25.6142 72.639 26.0662 72.8118 26.4672C72.9846 26.8682 73.3045 27.1877 73.7057 27.36C75.8488 27.9587 78.1073 28.0138 80.277 27.5203C82.4467 27.0267 84.4592 26.0001 86.1324 24.5333C87.9847 23.21 89.4736 21.4414 90.4617 19.3906C91.4498 17.3399 91.9051 15.0732 91.7857 12.8C91.5398 10.3387 90.5118 8.02097 88.8524 6.18664C86.5805 3.8029 83.7876 1.97747 80.6924 0.853303C77.9115 -0.00926765 74.96 -0.168446 72.1025 0.390032C69.2449 0.94851 66.5706 2.2072 64.3191 4.0533C61.8988 5.75302 60.148 8.24451 59.369 11.0976C58.59 13.9506 58.8317 16.9861 60.0524 19.68C60.7295 21.3441 61.9027 22.7593 63.4124 23.7333Z" fill="#020202" />
  <path fill-rule="evenodd" clip-rule="evenodd" d="M106.346 53.3334C106.296 53.1183 106.203 52.9153 106.074 52.7365C105.944 52.5577 105.78 52.4067 105.591 52.2924C105.402 52.1781 105.192 52.1027 104.974 52.0708C104.755 52.0389 104.533 52.0511 104.319 52.1067C98.7214 53.1273 93.0485 53.6803 87.3591 53.76C83.1458 53.76 78.9324 53.76 74.6124 53.1734C70.2924 52.5867 66.1858 52.3734 61.9191 51.7334C55.0842 50.5446 48.1631 49.9202 41.2258 49.8667C36.3364 50.095 31.6079 51.6835 27.5724 54.4534C27.3714 54.5352 27.1906 54.6598 27.0427 54.8186C26.8947 54.9774 26.7832 55.1665 26.7158 55.3728C26.6484 55.5791 26.6268 55.7977 26.6524 56.0132C26.6781 56.2287 26.7505 56.436 26.8644 56.6207C26.9784 56.8054 27.1312 56.9631 27.3123 57.0827C27.4935 57.2023 27.6984 57.281 27.9131 57.3133C28.1277 57.3456 28.3468 57.3307 28.555 57.2697C28.7633 57.2087 28.9558 57.103 29.1191 56.96C32.8609 54.9291 37.0774 53.9348 41.3324 54.08C48.001 54.6606 54.6157 55.7482 61.1191 57.3334C68.4149 58.3553 75.7799 58.8012 83.1458 58.6667C90.5541 58.3987 97.908 57.2893 105.066 55.36C105.503 55.2582 105.882 54.9885 106.121 54.6092C106.361 54.23 106.442 53.7716 106.346 53.3334Z" fill="#FDBE1C" />
  <path fill-rule="evenodd" clip-rule="evenodd" d="M84.8524 78.8266C90.2369 79.1502 95.6386 78.61 100.852 77.2266C101.066 77.1741 101.267 77.08 101.444 76.9497C101.622 76.8194 101.772 76.6555 101.885 76.4673C101.999 76.2791 102.075 76.0703 102.108 75.8529C102.142 75.6354 102.132 75.4136 102.079 75.1999C102.027 74.9863 101.932 74.7851 101.802 74.6079C101.672 74.4306 101.508 74.2808 101.32 74.1669C101.132 74.053 100.923 73.9772 100.705 73.944C100.488 73.9108 100.266 73.9207 100.052 73.9733C95.1726 74.8381 90.1869 74.9281 85.2791 74.2399C81.5457 73.8133 77.8124 73.0133 74.1857 72.2666L62.9324 69.7599C56.4436 68.187 49.7589 67.5761 43.0924 67.9466C38.4933 68.3832 34.0756 69.9597 30.2391 72.5333C29.9109 72.742 29.6771 73.0706 29.5874 73.4491C29.4978 73.8276 29.5594 74.2261 29.7591 74.5599C29.9693 74.9008 30.3035 75.1469 30.6914 75.2464C31.0794 75.3458 31.4908 75.291 31.8391 75.0933C35.3821 73.19 39.3372 72.1829 43.3591 72.1599C47.0464 72.2225 50.7146 72.7057 54.2924 73.5999C56.7457 74.1333 59.2524 74.6666 61.7057 75.3066C65.3324 76.1066 69.1724 77.0133 73.1191 77.6533C76.9996 78.3056 80.9195 78.6976 84.8524 78.8266Z" fill="#FDBE1C" />
  <path fill-rule="evenodd" clip-rule="evenodd" d="M52.5324 91.3066C49.8848 90.5036 47.1724 89.9325 44.4258 89.5999C39.6064 89.0881 34.7386 89.8994 30.3458 91.9466C29.9723 92.0689 29.6622 92.3334 29.4825 92.6828C29.3028 93.0322 29.268 93.4384 29.3858 93.8133C29.5191 94.1787 29.7854 94.4805 30.1313 94.6584C30.4773 94.8363 30.8776 94.8773 31.2524 94.7733C33.2431 94.305 35.2907 94.1254 37.3324 94.2399C38.9806 94.3413 40.62 94.5551 42.2391 94.8799L47.2524 95.8399C52.6245 97.0392 58.1232 97.5765 63.6258 97.4399C63.8473 97.4471 64.0681 97.4096 64.2749 97.3297C64.4816 97.2498 64.6703 97.1292 64.8295 96.9749C64.9887 96.8207 65.1153 96.636 65.2017 96.4319C65.2881 96.2277 65.3325 96.0083 65.3324 95.7866C65.3326 95.343 65.1602 94.9168 64.8516 94.5983C64.5429 94.2797 64.1224 94.0938 63.6791 94.0799C59.8851 93.5053 56.1533 92.5768 52.5324 91.3066Z" fill="#FDBE1C" />
</svg>