<svg width="132" height="135" viewBox="0 0 132 135" fill="none" xmlns="http://www.w3.org/2000/svg">
  <path d="M66.2375 0.606445H65.9376C29.6558 0.606445 0.243591 30.5654 0.243591 67.5215V67.827C0.243591 104.783 29.6558 134.742 65.9376 134.742H66.2375C102.519 134.742 131.932 104.783 131.932 67.827V67.5215C131.932 30.5654 102.519 0.606445 66.2375 0.606445Z" fill="black" />
  <path d="M99.4744 53.8789V66.5439C97.3014 66.3277 94.4778 65.8249 91.3544 64.6594C87.2759 63.1368 84.2401 61.055 82.2516 59.443V85.0408L82.2008 84.9609C82.2331 85.4685 82.2516 85.9854 82.2516 86.507C82.2516 99.219 72.0969 109.567 59.6123 109.567C47.1277 109.567 36.973 99.219 36.973 86.507C36.973 73.7951 47.1277 63.4423 59.6123 63.4423C60.8349 63.4423 62.0345 63.5409 63.2064 63.7336V76.2153C62.0806 75.8064 60.8718 75.5856 59.6123 75.5856C53.7022 75.5856 48.8901 80.4824 48.8901 86.507C48.8901 92.5317 53.7022 97.4285 59.6123 97.4285C65.5224 97.4285 70.3345 92.527 70.3345 86.507C70.3345 86.2815 70.3299 86.0559 70.316 85.8303V36.0869H82.7406C82.7868 37.1584 82.8283 38.2393 82.8744 39.3107C82.9575 41.4208 83.6957 43.4462 84.9829 45.1051C86.4916 47.0554 88.7199 49.3205 91.848 51.1298C94.7777 52.8216 97.5274 53.5453 99.4744 53.8883V53.8789Z" fill="#FF004F" />
  <path d="M95.2022 43.5968V56.2618C93.0291 56.0456 90.2056 55.5428 87.0821 54.3773C83.0036 52.8547 79.9678 50.7728 77.9793 49.1609V74.7587L77.9286 74.6788C77.9609 75.1864 77.9793 75.7033 77.9793 76.2249C77.9793 88.9369 67.8247 99.285 55.3401 99.285C42.8555 99.285 32.7008 88.9369 32.7008 76.2249C32.7008 63.513 42.8555 53.1602 55.3401 53.1602C56.5627 53.1602 57.7623 53.2588 58.9341 53.4515V65.9332C57.8084 65.5243 56.5996 65.3035 55.3401 65.3035C49.43 65.3035 44.6179 70.2003 44.6179 76.2249C44.6179 82.2496 49.43 87.1464 55.3401 87.1464C61.2502 87.1464 66.0622 82.2449 66.0622 76.2249C66.0622 75.9994 66.0576 75.7738 66.0438 75.5482V25.7954H78.4684C78.5145 26.8669 78.5561 27.9477 78.6022 29.0192C78.6852 31.1293 79.4234 33.1547 80.7107 34.8136C82.2193 36.7639 84.4477 39.029 87.5758 40.8383C90.5055 42.5254 93.2552 43.2538 95.2022 43.5968Z" fill="#00F7EF" />
  <path d="M97.9196 49.1328V61.7978C95.7466 61.5816 92.923 61.0788 89.7995 59.9133C85.721 58.3907 82.6853 56.3089 80.6968 54.697V80.2947L80.646 80.2148C80.6783 80.7224 80.6968 81.2393 80.6968 81.7609C80.6968 94.4729 70.5421 104.821 58.0575 104.821C45.5729 104.821 35.4182 94.4729 35.4182 81.7609C35.4182 69.049 45.5729 58.6962 58.0575 58.6962C59.2801 58.6962 60.4797 58.7949 61.6516 58.9875V71.4692C60.5258 71.0603 59.317 70.8395 58.0575 70.8395C52.1474 70.8395 47.3353 75.7363 47.3353 81.7609C47.3353 87.7856 52.1474 92.6824 58.0575 92.6824C63.9676 92.6824 68.7797 87.7809 68.7797 81.7609C68.7797 81.5354 68.7751 81.3098 68.7612 81.0842V31.3408H81.1858C81.232 32.4123 81.2735 33.4932 81.3196 34.5646C81.4027 36.6747 82.1408 38.7001 83.4281 40.359C84.9367 42.3093 87.1651 44.5744 90.2932 46.3837C93.2229 48.0708 95.9726 48.7992 97.9196 49.1422V49.1328Z" fill="white" />
</svg>