<svg width="128" height="131" viewBox="0 0 128 131" fill="none" xmlns="http://www.w3.org/2000/svg">
  <path fill-rule="evenodd" clip-rule="evenodd" d="M124.175 39.2009C121.022 31.7203 116.41 24.9948 110.628 19.4462C104.846 13.8977 98.0183 9.64577 90.574 6.9572C75.9786 1.14324 60.2001 -0.756011 44.7054 1.43602C34.8574 3.35012 25.736 8.11689 18.4004 15.1828C11.0648 22.2487 5.81605 31.3237 3.26364 41.3541C-2.49724 60.9362 -0.5813 82.0786 8.5972 100.21C16.8642 116.277 34.7316 126.656 54.1991 129.748C63.2639 131.444 72.5643 131.253 81.5571 129.187C90.5498 127.12 99.0546 123.219 106.575 117.712C106.839 117.377 106.983 116.958 106.983 116.525C106.983 116.092 106.839 115.673 106.575 115.338C106.433 115.143 106.256 114.979 106.052 114.856C105.848 114.733 105.623 114.654 105.389 114.623C105.155 114.592 104.918 114.61 104.691 114.676C104.464 114.742 104.252 114.854 104.068 115.007C96.9065 120.052 88.8473 123.573 80.3593 125.365C71.8712 127.156 63.1238 127.182 54.6258 125.442C36.8117 122.35 20.3844 112.743 13.0241 97.8358C4.89058 80.9439 3.43653 61.4357 8.97055 43.4522C14.3041 25.7292 26.8913 11.2085 45.6654 7.95101C60.1127 5.67799 74.8804 7.21621 88.6006 12.4232C95.4723 14.7277 101.81 18.4774 107.216 23.4369C112.622 28.3964 116.979 34.4587 120.015 41.2437C123.571 51.3571 124.776 62.1948 123.535 72.8801C122.685 83.7275 119.671 94.2743 114.682 103.854C114.469 104.235 114.412 104.687 114.522 105.112C114.632 105.536 114.901 105.898 115.268 106.118C115.636 106.337 116.073 106.397 116.483 106.283C116.893 106.169 117.243 105.891 117.455 105.51C122.862 95.608 126.205 84.643 127.269 73.3218C128.879 61.8555 127.818 50.1569 124.175 39.2009Z" fill="#FDBE1C" />
  <path fill-rule="evenodd" clip-rule="evenodd" d="M36.0118 76.6907V78.844C36.0467 79.5917 36.2282 80.3243 36.5451 80.9972C36.5451 80.9972 39.1052 86.8497 41.2387 85.9111C42.412 85.359 42.1987 79.12 42.1987 79.0096C42.0028 77.919 41.7173 76.8477 41.3453 75.8073C39.6919 72.0529 39.6919 72.329 39.6919 72.329C36.2785 67.7464 36.0651 76.6907 36.0118 76.6907Z" fill="#020202" />
  <path fill-rule="evenodd" clip-rule="evenodd" d="M45.8787 61.3402C45.5587 61.3402 44.7053 61.7267 44.2253 63.2174C44.2253 63.6591 43.8519 64.8737 43.7986 65.0394C43.3393 66.5943 43.2299 68.2374 43.4786 69.8428C43.5861 70.5898 43.8019 71.3157 44.1186 71.9961C44.5018 72.6524 44.9295 73.2797 45.3987 73.8733L46.9454 75.8609C47.2654 76.1922 47.3721 76.4682 47.4788 76.5234C48.5455 77.1308 49.2388 77.1308 49.6122 76.5234C49.9855 75.9161 50.1455 75.5848 49.6122 71.8856C49.2199 68.871 48.6499 65.884 47.9054 62.9413C47.8267 62.4582 47.5735 62.0241 47.1972 61.7268C46.821 61.4296 46.3497 61.2914 45.8787 61.3402Z" fill="#020202" />
  <path fill-rule="evenodd" clip-rule="evenodd" d="M91.0536 74.7019C91.9154 73.9968 92.6329 73.121 93.164 72.1256C93.6952 71.1302 94.0294 70.0353 94.1471 68.9047C94.7612 65.2605 94.9759 61.5563 94.7871 57.8623C94.205 49.3868 92.6656 41.0111 90.2002 32.9066C89.2533 29.5551 87.9286 26.3306 86.2534 23.2997C85.702 22.4717 84.9209 21.8364 84.0133 21.4777C83.2027 21.1787 82.3172 21.1787 81.5065 21.4777C79.8695 22.3573 78.3611 23.4726 77.0263 24.7904C72.04 29.5869 67.3042 34.6552 62.8391 39.9737C61.9548 41.334 61.6287 43.0022 61.9324 44.6115C61.9324 46.5991 63.0524 49.0836 63.5858 51.3473V51.9546C61.5057 51.0712 58.8922 49.8014 57.5055 49.3045C56.9078 49.0166 56.2307 48.9585 55.5954 49.1406C54.9601 49.3227 54.4082 49.7332 54.0387 50.2983C53.4352 52.1837 53.1642 54.166 53.2387 56.1507C53.3904 58.817 53.6931 61.4717 54.1454 64.1012C54.1454 65.2607 54.1454 66.8066 54.6787 68.1869C54.8052 68.9093 55.0582 69.6016 55.4254 70.2297C55.5304 70.4183 55.6703 70.5837 55.837 70.7163C56.0038 70.8489 56.1941 70.9462 56.3972 71.0026C56.6003 71.059 56.8121 71.0734 57.0206 71.045C57.2291 71.0166 57.4301 70.9459 57.6122 70.8371C57.7955 70.7293 57.9555 70.5838 58.0825 70.4097C58.2095 70.2355 58.3008 70.0364 58.3507 69.8244C58.4007 69.6124 58.4082 69.3921 58.373 69.1769C58.3377 68.9618 58.2603 68.7564 58.1455 68.5734C57.9276 68.0678 57.801 67.5251 57.7722 66.9722C57.7722 65.868 57.7722 64.6533 57.5055 63.7147C57.1855 61.1878 57.0074 58.6438 56.9722 56.0955C56.9175 55.2867 56.9175 54.475 56.9722 53.6662C59.0523 54.66 62.3057 56.3716 63.7991 57.0893C64.4409 57.4156 65.171 57.5059 65.869 57.3454C66.567 57.1848 67.1914 56.7829 67.6393 56.2059C68.1403 54.9102 68.2879 53.4969 68.066 52.1203C68.066 50.1326 67.1059 47.5929 66.6792 45.4396C66.6792 44.501 67.0526 43.2864 66.6792 43.0103C71.4577 37.8067 76.5147 32.8851 81.8265 28.2688C81.8265 28.2688 81.8265 28.8209 82.0932 29.0417C84.0179 34.107 85.5169 39.3347 86.5734 44.6667C87.57 49.0763 88.2123 53.5638 88.4935 58.0831C88.6356 60.4365 88.6356 62.7968 88.4935 65.1502C88.4137 66.4145 88.2353 67.6701 87.9601 68.9047C87.9601 69.2911 87.4268 69.6224 87.5335 69.8433L80.7598 71.1683C80.322 71.2234 79.9053 71.3947 79.5502 71.6656C79.1951 71.9364 78.9136 72.2977 78.7331 72.7143C78.523 73.1121 78.4129 73.5583 78.4129 74.0117C78.4129 74.4652 78.523 74.9113 78.7331 75.3092L83.2666 82.6524C80.2366 87.0491 76.5027 90.8771 72.2261 93.9708C67.4057 97.0734 61.8959 98.8415 56.2255 99.1055C55.7445 99.1055 55.2833 99.3033 54.9432 99.6553C54.6031 100.007 54.4121 100.485 54.4121 100.983C54.4121 101.481 54.6031 101.958 54.9432 102.31C55.2833 102.662 55.7445 102.86 56.2255 102.86C62.6725 102.859 69.0038 101.087 74.5729 97.7252C79.8512 94.1665 84.4898 89.6825 88.2801 84.4744C88.5793 84.0494 88.7405 83.5371 88.7405 83.0113C88.7405 82.4854 88.5793 81.9731 88.2801 81.5482L85.1867 76.027L88.2268 75.5301C89.2031 75.3984 90.1555 75.1194 91.0536 74.7019Z" fill="#020202" />
  <path fill-rule="evenodd" clip-rule="evenodd" d="M29.9314 102.64C30.0218 102.836 30.1497 103.011 30.3075 103.154C30.4653 103.297 30.6496 103.406 30.8492 103.473C31.0488 103.54 31.2595 103.564 31.4684 103.545C31.6774 103.525 31.8803 103.461 32.0648 103.358C32.0648 103.358 37.7717 100.763 43.2119 97.8364C45.9854 96.4009 48.5455 94.855 50.6256 93.5851C53.4524 91.4871 56.2791 89.2786 58.8926 86.9045C61.5212 84.5146 63.9976 81.9511 66.3062 79.23C70.985 73.8499 75.0642 67.9419 78.4667 61.6175C78.5937 61.4075 78.6793 61.1736 78.7186 60.9292C78.7578 60.6848 78.75 60.4348 78.6954 60.1935C78.6409 59.9523 78.5408 59.7246 78.4008 59.5236C78.2609 59.3227 78.0839 59.1524 77.88 59.0225C77.4813 58.7691 77.0033 58.6851 76.5461 58.788C76.0889 58.8909 75.6878 59.1727 75.4266 59.5746C72.3176 64.0939 68.8761 68.3579 65.1328 72.3286C62.3061 75.2548 59.3726 77.8497 56.3858 80.776C53.399 83.7022 50.3589 86.2972 47.2121 88.8369C45.5587 90.2724 43.2653 91.984 40.8652 93.6955C35.8516 97.1739 30.6247 100.431 30.6247 100.431C30.4353 100.525 30.2663 100.657 30.128 100.821C29.9896 100.984 29.8848 101.175 29.8199 101.381C29.7551 101.588 29.7315 101.806 29.7507 102.023C29.7698 102.239 29.8313 102.449 29.9314 102.64Z" fill="#020202" />
</svg>